<?xml version="1.0" encoding="UTF-8"?>
<svg version="1.1" xmlns="http://www.w3.org/2000/svg" width="257" height="257">
<path d="M0 0 C84.81 0 169.62 0 257 0 C257 84.81 257 169.62 257 257 C172.19 257 87.38 257 0 257 C0 172.19 0 87.38 0 0 Z " fill="#4EB1F4" transform="translate(0,0)"/>
<path d="M0 0 C84.81 0 169.62 0 257 0 C257 84.81 257 169.62 257 257 C172.19 257 87.38 257 0 257 C0 172.19 0 87.38 0 0 Z M28.84375 32.25 C17.45383752 45.50989811 15.6877901 60.96926989 15.7253418 77.88012695 C15.72023087 79.09502808 15.71511993 80.3099292 15.70985413 81.56164551 C15.69844154 84.85321535 15.69586744 88.14462673 15.69841743 91.43621087 C15.69949824 94.2040198 15.69457568 96.97180632 15.689812 99.73961037 C15.67877159 106.28044466 15.67824818 112.82122149 15.68432617 119.36206055 C15.69035936 126.06436678 15.67805904 132.76646274 15.6567561 139.46873313 C15.63902549 145.26453986 15.63315669 151.06028035 15.63639385 156.85611314 C15.63818895 160.29939554 15.63575136 163.74252797 15.62167931 167.18578529 C15.1242065 199.13020804 15.1242065 199.13020804 30.296875 226.328125 C44.10580972 239.88368477 61.0601863 241.14249508 79.46948242 241.16113281 C80.66458435 241.16609772 81.85968628 241.17106262 83.09100342 241.17617798 C86.33719645 241.18818649 89.5833537 241.19571794 92.82956481 241.20018864 C94.86750729 241.20314245 96.90544443 241.20725125 98.94338417 241.21169281 C105.3484752 241.22532831 111.75355369 241.2350147 118.15865821 241.2388947 C125.49930475 241.24336874 132.83976448 241.26090284 140.1803543 241.2898953 C145.89118603 241.31165182 151.60196572 241.32160633 157.31283838 241.32293582 C160.70698143 241.32397373 164.10094798 241.32966132 167.49504662 241.34775543 C199.72613556 241.75023774 199.72613556 241.75023774 227.03515625 226.125 C239.16561957 213.00577128 241.32024075 196.30477684 241.25878906 179.078125 C241.2622937 177.84719116 241.26579834 176.61625732 241.26940918 175.34802246 C241.27664394 172.00910205 241.27503208 168.67043338 241.26865101 165.33152771 C241.26353712 161.81378883 241.26829727 158.29605968 241.27142334 154.77832031 C241.27504744 148.87432965 241.27030497 142.97038926 241.26074219 137.06640625 C241.24986064 130.2703562 241.25338732 123.47442621 241.264395 116.67837906 C241.27351246 110.81132109 241.27473148 104.94429896 241.26951766 99.07723618 C241.26642234 95.58715603 241.26592066 92.09713205 241.27259064 88.60705566 C241.27951663 84.7119491 241.26987895 80.81697372 241.25878906 76.921875 C241.26486176 75.21952698 241.26486176 75.21952698 241.27105713 73.48278809 C241.18363573 56.80091212 237.80933193 42.32278114 226 30 C212.94596166 17.53047084 196.40311349 15.67858649 179.07226562 15.74121094 C177.85254562 15.7377063 176.63282562 15.73420166 175.37614441 15.73059082 C172.07237218 15.72336449 168.76876379 15.72496246 165.46499443 15.73134899 C161.98109511 15.73646974 158.49720549 15.73170088 155.01330566 15.72857666 C149.16656578 15.7249545 143.31987668 15.72968984 137.47314453 15.73925781 C130.74696166 15.75013898 124.02090011 15.74661216 117.29472017 15.735605 C111.4836768 15.72648191 105.67266961 15.72527123 99.86162138 15.73048234 C96.40673559 15.73357462 92.95190651 15.73408801 89.49702454 15.72740936 C85.64051287 15.72229005 81.78422921 15.73013002 77.92773438 15.74121094 C76.80735275 15.73716248 75.68697113 15.73311401 74.53263855 15.72894287 C56.90902997 15.82203336 41.36982494 19.17931311 28.84375 32.25 Z " fill="#FCFEFE" transform="translate(0,0)"/>
<path d="M0 0 C4.17632705 3.22282772 7.6085852 7.06894083 10.7109375 11.3203125 C10.7109375 11.9803125 10.7109375 12.6403125 10.7109375 13.3203125 C11.58234375 13.26230469 12.45375 13.20429687 13.3515625 13.14453125 C25.8795971 12.66998448 34.88566341 15.94243419 44.44140625 24.0625 C48.1164474 27.71856504 51.25690966 31.74541955 53.7109375 36.3203125 C53.7109375 37.3103125 53.7109375 38.3003125 53.7109375 39.3203125 C54.69320312 39.32417969 54.69320312 39.32417969 55.6953125 39.328125 C65.27363813 39.73398626 73.57513234 43.05049598 80.6484375 49.6328125 C88.30388487 58.05567635 90.22156426 66.29482611 89.9765625 77.4296875 C89.33803219 86.7822785 85.81075471 93.36301946 79.35546875 100.0859375 C71.13663489 107.03006301 62.62999522 109.46261515 52.13793945 109.49731445 C51.27399063 109.50388565 50.41004181 109.51045685 49.51991272 109.51722717 C46.66301379 109.53692381 43.80616737 109.54861551 40.94921875 109.55859375 C39.97118979 109.56266928 38.99316082 109.5667448 37.98549461 109.57094383 C32.80747058 109.59179041 27.62947292 109.6060975 22.45141602 109.61547852 C17.1162553 109.62653196 11.7815129 109.66092378 6.44649982 109.70065022 C2.332812 109.72685734 -1.78077683 109.73517406 -5.89454079 109.73875999 C-7.86042921 109.74361638 -9.8263135 109.75520319 -11.79211998 109.77379799 C-14.55144299 109.79827372 -17.30969237 109.79720897 -20.0690918 109.7902832 C-20.8720166 109.80309326 -21.67494141 109.81590332 -22.50219727 109.82910156 C-29.60251235 109.76455707 -35.04823136 107.30900434 -41.0390625 103.6328125 C-46.48139388 98.03930525 -48.61336735 93.05976218 -48.7890625 85.1953125 C-48.60400127 79.85166951 -47.93617524 75.95275979 -45.2890625 71.3203125 C-45.9903125 71.0934375 -46.6915625 70.8665625 -47.4140625 70.6328125 C-56.37178483 66.54341752 -61.9907961 57.99040703 -65.7265625 49.1328125 C-69.14064764 38.80264073 -68.63898148 26.13597213 -63.8203125 16.33203125 C-62.36254814 13.62622807 -60.85931914 10.96209648 -59.2890625 8.3203125 C-58.6290625 8.3203125 -57.9690625 8.3203125 -57.2890625 8.3203125 C-57.05703125 7.73378906 -56.825 7.14726563 -56.5859375 6.54296875 C-53.26764085 0.85588805 -45.21370647 -3.19960398 -39.2890625 -5.6796875 C-26.45474699 -8.97529835 -11.01501621 -7.50819472 0 0 Z " fill="#F4FAF8" transform="translate(115.2890625,71.6796875)"/>
<path d="M0 0 C4.17632705 3.22282772 7.6085852 7.06894083 10.7109375 11.3203125 C10.7109375 11.9803125 10.7109375 12.6403125 10.7109375 13.3203125 C8.46117398 13.96696913 6.21111783 14.61260773 3.9609375 15.2578125 C2.70796875 15.61746094 1.455 15.97710937 0.1640625 16.34765625 C-2.31467969 17.04585399 -4.78566412 17.71974976 -7.2890625 18.3203125 C-7.2890625 18.9803125 -7.2890625 19.6403125 -7.2890625 20.3203125 C-8.8984375 21.36328125 -8.8984375 21.36328125 -11.0390625 22.5078125 C-15.46646376 25.12971324 -17.11959136 27.71018633 -19.2890625 32.3203125 C-19.9490625 32.3203125 -20.6090625 32.3203125 -21.2890625 32.3203125 C-21.97145604 34.31500132 -22.63276734 36.31688516 -23.2890625 38.3203125 C-23.54171875 39.04734375 -23.794375 39.774375 -24.0546875 40.5234375 C-26.21756055 47.09687521 -26.94540186 53.42339894 -27.2890625 60.3203125 C-27.86914062 60.56265625 -28.44921875 60.805 -29.046875 61.0546875 C-35.08634792 63.6458805 -40.81470197 66.3488008 -45.2890625 71.3203125 C-54.788908 68.24683307 -60.19685244 60.27803101 -64.62109375 51.75390625 C-68.74478465 41.97653312 -69.11222191 29.32070633 -65.2890625 19.3203125 C-63.44039108 15.55905282 -61.4300768 11.92233342 -59.2890625 8.3203125 C-58.6290625 8.3203125 -57.9690625 8.3203125 -57.2890625 8.3203125 C-57.05703125 7.73378906 -56.825 7.14726563 -56.5859375 6.54296875 C-53.26764085 0.85588805 -45.21370647 -3.19960398 -39.2890625 -5.6796875 C-26.45474699 -8.97529835 -11.01501621 -7.50819472 0 0 Z " fill="#FDCE02" transform="translate(115.2890625,71.6796875)"/>
<path d="M0 0 C0.33 0 0.66 0 1 0 C1.01458252 1.11334717 1.02916504 2.22669434 1.04418945 3.3737793 C1.10284039 7.56565013 1.18005902 11.75702058 1.26245117 15.94848633 C1.29539024 17.75113714 1.32351503 19.55388342 1.34643555 21.35668945 C1.50012929 33.13224597 2.24608383 43.73825149 6 55 C6.66 55.33 7.32 55.66 8 56 C8.4140625 58.50390625 8.4140625 58.50390625 8.625 61.5625 C8.73714844 63.08037109 8.73714844 63.08037109 8.8515625 64.62890625 C8.90054687 65.41136719 8.94953125 66.19382812 9 67 C10.32 67.33 11.64 67.66 13 68 C13.33 69.32 13.66 70.64 14 72 C14.66 72 15.32 72 16 72 C16.33 72.99 16.66 73.98 17 75 C19.00016466 76.20882096 19.00016466 76.20882096 21 77 C20.67 77.66 20.34 78.32 20 79 C22.11926552 80.09887842 24.20736758 81.07975676 26.4375 81.9375 C29 83 29 83 31.4375 84.625 C34.4961152 86.26620816 36.57887154 86.23868338 40 86 C40.33 86.99 40.66 87.98 41 89 C59.46276203 88.91617417 77.92543292 88.82106836 96.38806629 88.71247292 C104.96027142 88.66231605 113.53246684 88.61587353 122.10473633 88.578125 C129.57489487 88.54522032 137.04497871 88.50539762 144.51505488 88.45720994 C148.47169633 88.43192972 152.42828814 88.410153 156.38498878 88.39665604 C160.10730441 88.38384941 163.82944991 88.36181035 167.55167198 88.33261681 C169.57282619 88.3191894 171.59403829 88.31561682 173.61523438 88.31230164 C174.81416824 88.30113815 176.01310211 88.28997467 177.24836731 88.2784729 C178.29275876 88.27294214 179.33715021 88.26741138 180.41318989 88.26171303 C183.23731588 88.17988343 183.23731588 88.17988343 186 86 C187.38545319 85.68028003 188.78372559 85.41359464 190.1875 85.1875 C194.54467992 84.30611287 197.64191374 82.63924911 201.2734375 80.12109375 C203 79 203 79 206 78 C206.33 77.34 206.66 76.68 207 76 C207.99 75.67 208.98 75.34 210 75 C210 73.68 210 72.36 210 71 C211.6222454 69.29006566 213.29413425 67.62652316 215 66 C217.54514483 62.33688746 217.54514483 62.33688746 218 58 C218.66 58 219.32 58 220 58 C221.69868147 51.32149971 222.32936275 45.15430584 222.4140625 38.27734375 C222.43342865 37.29125626 222.4527948 36.30516876 222.4727478 35.28919983 C222.53202664 32.17205165 222.57872039 29.05486549 222.625 25.9375 C222.66322744 23.8105317 222.70228187 21.6835781 222.7421875 19.55664062 C222.83768509 14.37121456 222.92190473 9.18571616 223 4 C223.33 4 223.66 4 224 4 C224.19447484 9.19163257 224.37280839 14.38349663 224.53710938 19.57617188 C224.59500172 21.33738555 224.65707157 23.09846764 224.72363281 24.859375 C225.32399243 40.86896475 225.385232 57.72998133 215 71 C214.16855469 72.06347656 214.16855469 72.06347656 213.3203125 73.1484375 C204.27977568 84.07695792 192.39305243 89.12355048 178.41229439 90.7945652 C173.56807103 91.20710691 168.7137872 91.14723573 163.85522461 91.14526367 C162.65895447 91.14862228 161.46268433 91.1519809 160.23016357 91.15544128 C156.96732751 91.16328172 153.70452977 91.1666171 150.44168544 91.16725707 C148.39522392 91.16797123 146.34876893 91.17011253 144.30230904 91.17275429 C137.13976752 91.18199159 129.97724454 91.18609153 122.81469727 91.18530273 C116.1767116 91.18470359 109.53880763 91.19522734 102.90084261 91.2110464 C97.17225263 91.2242034 91.44368907 91.22948318 85.71508414 91.22884732 C82.30699985 91.22859456 78.89898812 91.23132092 75.49091911 91.24202538 C30.54248117 91.35863695 30.54248117 91.35863695 16.5625 78.8125 C0.67192358 61.37162344 -0.49535697 42.59166773 -0.1875 20 C-0.1724087 18.04948963 -0.15872825 16.09896782 -0.14648438 14.1484375 C-0.11387062 9.432002 -0.06234042 4.71613238 0 0 Z " fill="#88EAF8" transform="translate(16,150)"/>
<path d="M0 0 C3.63 2.31 7.26 4.62 11 7 C10.67 7.86625 10.34 8.7325 10 9.625 C7.79292176 17.62565861 7.47174559 26.28613423 11.625 33.625 C15.66237082 39.40621174 20.26146559 42.14328663 27 44 C29.91344274 44.28932712 32.81035867 44.30396396 35.73657227 44.30639648 C36.59438797 44.31472 37.45220367 44.32304352 38.33601379 44.33161926 C41.162858 44.35564728 43.98947084 44.36448469 46.81640625 44.37109375 C48.79451055 44.38006894 50.77261419 44.38919094 52.75071716 44.39845276 C56.89738611 44.4149282 61.0439745 44.42263965 65.19067383 44.42553711 C70.47395713 44.43090455 75.75646993 44.46852318 81.03953648 44.51428127 C85.12766699 44.54420568 89.2156159 44.55126407 93.30384636 44.55226326 C95.24968921 44.55643882 97.19553395 44.56876449 99.14126778 44.58978081 C113.31778652 44.73065675 125.63290941 44.08391119 136.41015625 33.6484375 C136.93480469 33.10445312 137.45945313 32.56046875 138 32 C138.825 31.195625 139.65 30.39125 140.5 29.5625 C141.2425 28.7890625 141.2425 28.7890625 142 28 C141.79866835 29.62868288 141.56290104 31.25313636 141.3125 32.875 C141.18488281 33.77992188 141.05726563 34.68484375 140.92578125 35.6171875 C140 38 140 38 137.671875 39.12890625 C136.34929687 39.56009766 136.34929687 39.56009766 135 40 C133.62612352 40.99414862 132.27194972 42.01602401 130.9375 43.0625 C120.8996586 49.77450933 105.0562268 47.13034028 93.359375 47.09765625 C91.38112423 47.09578766 89.40287299 47.09436584 87.42462158 47.09336853 C82.25606983 47.08957804 77.08754685 47.07977797 71.91900635 47.06866455 C66.62960194 47.05837527 61.34019281 47.05385491 56.05078125 47.04882812 C45.70050829 47.03815209 35.35025655 47.02111809 25 47 C25 46.34 25 45.68 25 45 C23.02 45.495 23.02 45.495 21 46 C21 45.34 21 44.68 21 44 C20.278125 43.95875 19.55625 43.9175 18.8125 43.875 C14.76956216 42.61719712 13.56651817 40.32953708 11 37 C10.34 36.67 9.68 36.34 9 36 C5.14245093 27.0853813 3.58723006 18.43405317 7.0546875 9.1875 C7.36664063 8.465625 7.67859375 7.74375 8 7 C5.69 6.67 3.38 6.34 1 6 C0.67 4.02 0.34 2.04 0 0 Z " fill="#6CCCE4" transform="translate(59,136)"/>
<path d="M0 0 C1.20100342 -0.00014603 2.40200684 -0.00029205 3.6394043 -0.0004425 C6.90531359 0.00013137 10.17117903 0.00511796 13.43707967 0.01213145 C16.86034912 0.01841795 20.28361959 0.01897296 23.70689392 0.02015686 C30.1770996 0.02325464 36.64728822 0.03144695 43.11748642 0.04150635 C50.48877379 0.0527159 57.860062 0.0581901 65.23135579 0.06320179 C80.38333196 0.07363098 95.53529219 0.09120013 110.68725586 0.11352539 C110.35725586 0.77352539 110.02725586 1.43352539 109.68725586 2.11352539 C109.1067277 2.1116818 108.52619953 2.10983822 107.92807961 2.10793877 C93.81565733 2.06380874 79.70324538 2.03069274 65.59076881 2.00990105 C58.76613516 1.99957961 51.9415475 1.98550279 45.11694336 1.96264648 C38.5358223 1.9406161 31.9547366 1.92896988 25.37357712 1.9237709 C22.85766216 1.92006398 20.34174994 1.91282573 17.82585526 1.90206528 C14.31296288 1.88763276 10.80027057 1.88554399 7.28735352 1.88647461 C6.23791061 1.87928406 5.18846771 1.87209351 4.10722351 1.86468506 C3.15367477 1.86743439 2.20012604 1.87018372 1.21768188 1.87301636 C0.38622461 1.87117277 -0.44523266 1.86932919 -1.3018856 1.86742973 C-3.54190748 1.93204014 -3.54190748 1.93204014 -5.31274414 4.11352539 C-7.41692223 4.15461116 -9.52341464 4.09607173 -11.62524414 3.98852539 C-19.82897723 3.87880468 -29.31156257 4.8234554 -35.62524414 10.67602539 C-37.59734913 13.0305156 -37.59734913 13.0305156 -37.31274414 16.11352539 C-38.63274414 16.11352539 -39.95274414 16.11352539 -41.31274414 16.11352539 C-42.30274414 16.44352539 -43.29274414 16.77352539 -44.31274414 17.11352539 C-44.64274414 19.42352539 -44.97274414 21.73352539 -45.31274414 24.11352539 C-46.07586914 24.17540039 -46.83899414 24.23727539 -47.62524414 24.30102539 C-50.49361731 24.87360317 -50.49361731 24.87360317 -52.00024414 27.42602539 C-52.43336914 28.31290039 -52.86649414 29.19977539 -53.31274414 30.11352539 C-53.70461914 30.75290039 -54.09649414 31.39227539 -54.50024414 32.05102539 C-55.4960064 34.20926817 -55.4960064 34.20926817 -55.31274414 37.11352539 C-55.31274414 40.11352539 -55.31274414 40.11352539 -56.31274414 42.04321289 C-57.44134669 44.37977286 -57.46411241 45.67472537 -57.31274414 48.23852539 C-57.17567485 53.38719048 -58.1448143 58.11853973 -59.31274414 63.11352539 C-59.64274414 63.11352539 -59.97274414 63.11352539 -60.31274414 63.11352539 C-60.93395377 44.3147663 -60.33214848 29.20478306 -47.02368164 14.60180664 C-33.73423325 1.83971731 -17.65309046 -0.05677999 0 0 Z " fill="#3477CC" transform="translate(77.312744140625,15.886474609375)"/>
<path d="M0 0 C0.33 0 0.66 0 1 0 C1.19447484 5.19163257 1.37280839 10.38349663 1.53710938 15.57617188 C1.59500172 17.33738555 1.65707157 19.09846764 1.72363281 20.859375 C2.32399243 36.86896475 2.385232 53.72998133 -8 67 C-8.83144531 68.06347656 -8.83144531 68.06347656 -9.6796875 69.1484375 C-18.71341908 80.0687315 -30.60034003 85.12680218 -44.57302856 86.79652214 C-49.50132633 87.20971179 -54.44065979 87.12911061 -59.3828125 87.11352539 C-61.2133593 87.11374443 -61.2133593 87.11374443 -63.08088684 87.1139679 C-66.40471203 87.1133933 -69.72847403 87.10840062 -73.05228806 87.10139394 C-76.53428712 87.09511491 -80.01628716 87.09455302 -83.49829102 87.09336853 C-90.08186094 87.09026858 -96.66541413 87.08207329 -103.24897671 87.07201904 C-110.74841262 87.0608163 -118.24784936 87.05533699 -125.74729156 87.05032361 C-141.16487071 87.03988949 -156.58243319 87.02231605 -172 87 C-172 86.67 -172 86.34 -172 86 C-171.39868917 85.99576806 -170.79737833 85.99153612 -170.17784595 85.98717594 C-155.4940363 85.88352105 -140.81026972 85.77483398 -126.12653828 85.66066074 C-119.02537381 85.60556494 -111.92420434 85.55212403 -104.82299805 85.50268555 C-98.6279942 85.45955172 -92.4330238 85.41320428 -86.2380721 85.36312145 C-82.96299345 85.33675317 -79.68792053 85.3123898 -76.41280556 85.29092598 C-72.74171025 85.26659364 -69.0707002 85.23658209 -65.3996582 85.20532227 C-64.33365891 85.1995668 -63.26765961 85.19381134 -62.1693573 85.18788147 C-48.99116822 85.79755289 -48.99116822 85.79755289 -37 82 C-35.61454681 81.68028003 -34.21627441 81.41359464 -32.8125 81.1875 C-28.45532008 80.30611287 -25.35808626 78.63924911 -21.7265625 76.12109375 C-20 75 -20 75 -17 74 C-16.67 73.34 -16.34 72.68 -16 72 C-15.01 71.67 -14.02 71.34 -13 71 C-13 69.68 -13 68.36 -13 67 C-11.3777546 65.29006566 -9.70586575 63.62652316 -8 62 C-5.45485517 58.33688746 -5.45485517 58.33688746 -5 54 C-4.34 54 -3.68 54 -3 54 C-1.30131853 47.32149971 -0.67063725 41.15430584 -0.5859375 34.27734375 C-0.56657135 33.29125626 -0.5472052 32.30516876 -0.5272522 31.28919983 C-0.46797336 28.17205165 -0.42127961 25.05486549 -0.375 21.9375 C-0.33677256 19.8105317 -0.29771813 17.6835781 -0.2578125 15.55664062 C-0.16231491 10.37121456 -0.07809527 5.18571616 0 0 Z " fill="#88DAEA" transform="translate(239,154)"/>
<path d="M0 0 C1.49080078 -0.01836914 1.49080078 -0.01836914 3.01171875 -0.03710938 C8.89775002 -0.04877258 13.84001503 0.61315733 19.5 2.1875 C22.36557953 1.91948143 22.36557953 1.91948143 24.5 1.1875 C24.5 2.5075 24.5 3.8275 24.5 5.1875 C25.82 5.1875 27.14 5.1875 28.5 5.1875 C28.5 5.8475 28.5 6.5075 28.5 7.1875 C29.49 7.6825 29.49 7.6825 30.5 8.1875 C31.49 8.6825 31.49 8.6825 32.5 9.1875 C33.49 9.5175 34.48 9.8475 35.5 10.1875 C37.78070175 16.34539474 37.78070175 16.34539474 36.5 20.1875 C41.12 19.8575 45.74 19.5275 50.5 19.1875 C50.5 19.8475 50.5 20.5075 50.5 21.1875 C52.15 21.1875 53.8 21.1875 55.5 21.1875 C55.5 22.1775 55.5 23.1675 55.5 24.1875 C52.28652303 24.08293806 49.08349335 23.89277218 45.875 23.6875 C44.97136719 23.65914062 44.06773437 23.63078125 43.13671875 23.6015625 C36.49056003 23.11644143 36.49056003 23.11644143 33.58081055 20.38769531 C32.08061924 18.37893755 30.77788016 16.34208773 29.5 14.1875 C23.43315051 7.1421264 14.61004844 3.79781939 5.48632812 3.01464844 C-8.39630692 2.26712193 -18.28271172 4.63661631 -29.5 13.1875 C-30.51077358 14.51268472 -31.51375394 15.84396121 -32.5 17.1875 C-33.16 17.1875 -33.82 17.1875 -34.5 17.1875 C-34.603125 17.765 -34.70625 18.3425 -34.8125 18.9375 C-35.59792798 21.50799158 -36.80504197 23.12407284 -38.5 25.1875 C-38.5 23.5375 -38.5 21.8875 -38.5 20.1875 C-37.84 19.8575 -37.18 19.5275 -36.5 19.1875 C-35.77306096 17.20861039 -35.10183749 15.20795442 -34.5 13.1875 C-33.84 13.1875 -33.18 13.1875 -32.5 13.1875 C-32.5 12.5275 -32.5 11.8675 -32.5 11.1875 C-30.85 10.8575 -29.2 10.5275 -27.5 10.1875 C-27.5 9.5275 -27.5 8.8675 -27.5 8.1875 C-26.63375 7.8471875 -26.63375 7.8471875 -25.75 7.5 C-23.29811312 6.28542299 -23.29811312 6.28542299 -21.75 3.625 C-16.94920063 -1.57586598 -6.68856419 0.00433759 0 0 Z " fill="#4297DB" transform="translate(90.5,62.8125)"/>
<path d="M0 0 C-1.65 0.33 -3.3 0.66 -5 1 C-5 1.66 -5 2.32 -5 3 C-6.093125 3.309375 -7.18625 3.61875 -8.3125 3.9375 C-10.55407994 4.58337897 -12.7869351 5.2623117 -15 6 C-15.185625 6.9590625 -15.185625 6.9590625 -15.375 7.9375 C-15.58125 8.618125 -15.7875 9.29875 -16 10 C-16.75152344 10.28746094 -17.50304687 10.57492188 -18.27734375 10.87109375 C-23.07186169 12.8590646 -26.06166026 16.82132271 -29 21 C-30.02366709 23.6967089 -30.4899137 26.14351672 -31 29 C-31.66 29.33 -32.32 29.66 -33 30 C-33.25816542 32.24134522 -33.40646371 34.49577536 -33.5 36.75 C-33.85176948 45.15729062 -33.85176948 45.15729062 -36 49 C-39.4375 50.125 -39.4375 50.125 -43 51 C-44.64594139 52.39588754 -44.64594139 52.39588754 -46 54 C-48.95361812 55.96907875 -51.49850918 57.35157577 -55 58 C-55 57.34 -55 56.68 -55 56 C-54.34 56 -53.68 56 -53 56 C-52.67 55.01 -52.34 54.02 -52 53 C-47.09907894 48.89922932 -43.24750996 47.20565982 -37 46 C-37.03480469 45.24976563 -37.06960937 44.49953125 -37.10546875 43.7265625 C-37.36009708 34.09918661 -35.67657649 26.4623765 -31 18 C-30.34 18 -29.68 18 -29 18 C-28.9071875 17.1646875 -28.9071875 17.1646875 -28.8125 16.3125 C-27.21837196 11.77536636 -22.94578412 8.58516891 -19 6 C-18.34 6 -17.68 6 -17 6 C-17 5.34 -17 4.68 -17 4 C-14.92227529 3.13227971 -12.83756823 2.28126381 -10.75 1.4375 C-9.58984375 0.96183594 -8.4296875 0.48617187 -7.234375 -0.00390625 C-4.13733356 -0.95770524 -2.92678299 -1.20983356 0 0 Z " fill="#FDF5AF" transform="translate(125,86)"/>
<path d="M0 0 C13.1655989 -0.94982277 24.63392719 2.83671766 35 11 C42.55256052 17.8182838 48.69488988 26.96849264 49.875 37.25 C49.91625 38.4875 49.9575 39.725 50 41 C49.01 41.495 49.01 41.495 48 42 C47.8453125 40.4840625 47.8453125 40.4840625 47.6875 38.9375 C46.97888851 34.87908876 45.7521625 31.7145845 44 28 C43.67 27.21625 43.34 26.4325 43 25.625 C42.02546436 23.65169931 42.02546436 23.65169931 39 23 C38.7525 22.030625 38.505 21.06125 38.25 20.0625 C37.8375 19.051875 37.425 18.04125 37 17 C33.47548841 15.53977565 33.47548841 15.53977565 30 15 C29.855625 14.401875 29.71125 13.80375 29.5625 13.1875 C29.1127561 11.43849596 28.57107659 9.71322977 28 8 C27.39671875 7.93941406 26.7934375 7.87882812 26.171875 7.81640625 C25.37265625 7.73261719 24.5734375 7.64882813 23.75 7.5625 C22.56664062 7.44068359 22.56664062 7.44068359 21.359375 7.31640625 C19.15271556 7.02048007 17.11251991 6.70573121 15 6 C14.67 5.34 14.34 4.68 14 4 C11.45058627 3.68758629 8.99638487 3.48696579 6.4375 3.375 C5.72658203 3.33632813 5.01566406 3.29765625 4.28320312 3.2578125 C2.52257575 3.16328217 0.76132272 3.08054183 -1 3 C-0.67 2.01 -0.34 1.02 0 0 Z " fill="#3077CA" transform="translate(189,17)"/>
<path d="M0 0 C1.01900391 -0.020625 2.03800781 -0.04125 3.08789062 -0.0625 C12.0268332 -0.10927014 12.0268332 -0.10927014 16.3125 3.25 C17.42625 3.4975 17.42625 3.4975 18.5625 3.75 C19.14 3.915 19.7175 4.08 20.3125 4.25 C20.8075 5.735 20.8075 5.735 21.3125 7.25 C20.72082031 7.04503906 20.12914062 6.84007813 19.51953125 6.62890625 C18.72933594 6.35949219 17.93914062 6.09007813 17.125 5.8125 C16.34769531 5.54566406 15.57039063 5.27882813 14.76953125 5.00390625 C4.71362625 1.91839009 -9.14498345 1.23316226 -18.6875 6.25 C-24.23032754 9.36784049 -28.90192234 12.09300049 -32.6875 17.25 C-33.3475 17.25 -34.0075 17.25 -34.6875 17.25 C-34.790625 17.8275 -34.89375 18.405 -35 19 C-35.78542798 21.57049158 -36.99254197 23.18657284 -38.6875 25.25 C-38.6875 23.6 -38.6875 21.95 -38.6875 20.25 C-38.0275 19.92 -37.3675 19.59 -36.6875 19.25 C-35.96056096 17.27111039 -35.28933749 15.27045442 -34.6875 13.25 C-34.0275 13.25 -33.3675 13.25 -32.6875 13.25 C-32.6875 12.59 -32.6875 11.93 -32.6875 11.25 C-31.0375 10.92 -29.3875 10.59 -27.6875 10.25 C-27.6875 9.59 -27.6875 8.93 -27.6875 8.25 C-26.82125 7.9096875 -26.82125 7.9096875 -25.9375 7.5625 C-23.48561312 6.34792299 -23.48561312 6.34792299 -21.9375 3.6875 C-17.12724208 -1.52361275 -6.70937246 0.034341 0 0 Z " fill="#5195BB" transform="translate(90.6875,62.75)"/>
<path d="M0 0 C0.495 0.99 0.495 0.99 1 2 C0.566875 3.03125 0.13375 4.0625 -0.3125 5.125 C-1.84558303 8.785489 -2.21452349 12.13275015 -2.47045898 16.08056641 C-3.11864911 25.17980407 -3.11864911 25.17980407 -5.9140625 27.78125 C-8.25619164 28.75256777 -10.54368811 29.38385442 -13 30 C-16.36725145 32.05776478 -19.35448843 34.06054271 -22 37 C-26.6138567 35.50728166 -29.49459542 33.26639972 -33 30 C-33.33 29.01 -33.66 28.02 -34 27 C-33.34 27 -32.68 27 -32 27 C-32 27.66 -32 28.32 -32 29 C-30.68 28.67 -29.36 28.34 -28 28 C-28 28.99 -28 29.98 -28 31 C-27.0925 30.79375 -26.185 30.5875 -25.25 30.375 C-21.88972103 29.9872755 -20.75924185 30.19588033 -18 32 C-18 31.34 -18 30.68 -18 30 C-17.34 29.67 -16.68 29.34 -16 29 C-15.67 28.01 -15.34 27.02 -15 26 C-11.7 25.67 -8.4 25.34 -5 25 C-5.02320312 23.75863281 -5.04640625 22.51726562 -5.0703125 21.23828125 C-5.08907731 19.5963602 -5.10727675 17.95443262 -5.125 16.3125 C-5.14175781 15.49587891 -5.15851563 14.67925781 -5.17578125 13.83789062 C-5.21095618 9.49378721 -5.23401838 5.86884641 -3 2 C-2.01 1.34 -1.02 0.68 0 0 Z " fill="#E4E227" transform="translate(92,106)"/>
<path d="M0 0 C4.17632705 3.22282772 7.6085852 7.06894083 10.7109375 11.3203125 C10.7109375 11.9803125 10.7109375 12.6403125 10.7109375 13.3203125 C9.3909375 12.9903125 8.0709375 12.6603125 6.7109375 12.3203125 C6.7109375 11.3303125 6.7109375 10.3403125 6.7109375 9.3203125 C5.9065625 9.0934375 5.1021875 8.8665625 4.2734375 8.6328125 C3.005 7.983125 3.005 7.983125 1.7109375 7.3203125 C0.8984375 4.6953125 0.8984375 4.6953125 0.7109375 2.3203125 C-1.7640625 1.8253125 -1.7640625 1.8253125 -4.2890625 1.3203125 C-4.2890625 0.6603125 -4.2890625 0.0003125 -4.2890625 -0.6796875 C-9.7340625 -1.1746875 -9.7340625 -1.1746875 -15.2890625 -1.6796875 C-15.2890625 -2.6696875 -15.2890625 -3.6596875 -15.2890625 -4.6796875 C-18.83099625 -4.53993345 -22.37253249 -4.39179816 -25.9140625 -4.2421875 C-26.91308594 -4.20287109 -27.91210938 -4.16355469 -28.94140625 -4.12304688 C-33.79862354 -3.91396136 -38.51038294 -3.65010195 -43.2890625 -2.6796875 C-32.65302815 -11.74001306 -10.56838752 -7.20375802 0 0 Z " fill="#D5C249" transform="translate(115.2890625,71.6796875)"/>
<path d="M0 0 C0.33 0.66 0.66 1.32 1 2 C-0.62441358 6.30469598 -2.56929388 10.08973363 -5 14 C-6.61785127 16.63965207 -7 17.84012675 -7 21 C-7 24 -7 24 -8 25.9296875 C-9.12860255 28.26624747 -9.15136827 29.56119998 -9 32.125 C-8.86293071 37.27366509 -9.83207016 42.00501434 -11 47 C-11.33 47 -11.66 47 -12 47 C-12.59754233 28.91744967 -11.81084391 16.1238315 -1 1 C-0.67 0.67 -0.34 0.34 0 0 Z " fill="#4486D1" transform="translate(29,32)"/>
<path d="M0 0 C0.66 0 1.32 0 2 0 C1.49396008 2.16874252 1.00016187 3.99967627 0 6 C1.32 6 2.64 6 4 6 C4 6.66 4 7.32 4 8 C1.69 8.66 -0.62 9.32 -3 10 C-3 11.32 -3 12.64 -3 14 C-3.66 14 -4.32 14 -5 14 C-5 22.58 -5 31.16 -5 40 C-9.63808785 33.04286822 -8.83546546 23.34894483 -7.375 15.25 C-5.94093231 9.73516615 -2.89025653 4.8625385 0 0 Z " fill="#E1D434" transform="translate(56,80)"/>
<path d="M0 0 C0.33 0 0.66 0 1 0 C1.01458252 1.11334717 1.02916504 2.22669434 1.04418945 3.3737793 C1.10284039 7.56565013 1.18005902 11.75702058 1.26245117 15.94848633 C1.29539024 17.75113714 1.32351503 19.55388342 1.34643555 21.35668945 C1.50012929 33.13224597 2.24608383 43.73825149 6 55 C6.66 55.33 7.32 55.66 8 56 C8 57.98 8 59.96 8 62 C7.01 62 6.02 62 5 62 C-0.72442838 48.46953291 -0.25368521 34.67245581 -0.125 20.25 C-0.11494876 18.28125456 -0.10582671 16.31250414 -0.09765625 14.34375 C-0.07581575 9.56237529 -0.04140432 4.78124368 0 0 Z " fill="#7CCFEC" transform="translate(16,150)"/>
<path d="M0 0 C0.99 0 1.98 0 3 0 C3.33 1.65 3.66 3.3 4 5 C5.32 5.33 6.64 5.66 8 6 C8.33 7.32 8.66 8.64 9 10 C9.66 10 10.32 10 11 10 C11.33 10.99 11.66 11.98 12 13 C14.00016466 14.20882096 14.00016466 14.20882096 16 15 C15.67 15.66 15.34 16.32 15 17 C17.11926552 18.09887842 19.20736758 19.07975676 21.4375 19.9375 C24 21 24 21 26.4375 22.5 C29.21409071 24.12532139 31.92797226 25.07124743 35 26 C32.23547417 27.08724757 31.04676607 27.01466666 28.16015625 26.109375 C27.13792969 25.66078125 26.11570312 25.2121875 25.0625 24.75 C23.53302734 24.09257812 23.53302734 24.09257812 21.97265625 23.421875 C11.70590058 18.51110094 4.64913124 10.33140275 0 0 Z " fill="#89E2F1" transform="translate(21,212)"/>
<path d="M0 0 C11.99951858 1.93540622 21.72878724 8.28291057 28.875 18.125 C32 22.57575758 32 22.57575758 32 26 C32.99 26.33 33.98 26.66 35 27 C33.68 27 32.36 27 31 27 C31 26.34 31 25.68 31 25 C30.01 25 29.02 25 28 25 C27.34 22.69 26.68 20.38 26 18 C24.68 17.67 23.36 17.34 22 17 C21.95875 16.236875 21.9175 15.47375 21.875 14.6875 C21.22176391 11.67594887 21.22176391 11.67594887 17.9375 10.1875 C16.968125 9.795625 15.99875 9.40375 15 9 C15 8.34 15 7.68 15 7 C13.35 7 11.7 7 10 7 C10 6.01 10 5.02 10 4 C7.03 3.67 4.06 3.34 1 3 C0.67 2.01 0.34 1.02 0 0 Z " fill="#C8EDFC" transform="translate(137,85)"/>
<path d="M0 0 C4.46012127 -0.39645522 4.46012127 -0.39645522 6.80859375 1.328125 C13.75170854 9.52000144 18.63745511 18.12365339 19 29 C18.34 29.33 17.68 29.66 17 30 C16.896875 28.989375 16.79375 27.97875 16.6875 26.9375 C15.97888851 22.87908876 14.7521625 19.7145845 13 16 C12.67 15.21625 12.34 14.4325 12 13.625 C11.02546436 11.65169931 11.02546436 11.65169931 8 11 C7.7525 10.030625 7.505 9.06125 7.25 8.0625 C6.63125 6.5465625 6.63125 6.5465625 6 5 C2.47548841 3.53977565 2.47548841 3.53977565 -1 3 C-0.67 2.01 -0.34 1.02 0 0 Z " fill="#327CDA" transform="translate(220,29)"/>
<path d="M0 0 C1.22758133 2.45516266 0.94817626 3.3575603 0.375 6 C0.23835938 6.70125 0.10171875 7.4025 -0.0390625 8.125 C-1.42466075 10.82860634 -3.18998942 11.01424665 -6 12 C-7.46009253 12.98824934 -8.89799954 14.01002891 -10.3125 15.0625 C-14.68960833 18.05121003 -17.70132909 19 -23 19 C-23.99 18.34 -24.98 17.68 -26 17 C-25.01 16.64808594 -24.02 16.29617187 -23 15.93359375 C-13.28430759 12.34985607 -6.21203244 8.56961101 0 0 Z " fill="#73CDEB" transform="translate(200,164)"/>
<path d="M0 0 C4.0440044 4.0440044 3.3125 9.62885832 3.3125 15.07666016 C3.07565405 26.25955708 -1.16739708 33.30047529 -9 41 C-10 38 -10 38 -9.328125 36.2109375 C-8.97234375 35.60507813 -8.6165625 34.99921875 -8.25 34.375 C-7.73179687 33.45847656 -7.73179687 33.45847656 -7.203125 32.5234375 C-6 31 -6 31 -3 30 C1.0862463 24.41832091 0.33897193 18.21985489 0.1875 11.625 C0.17396484 10.50738281 0.16042969 9.38976562 0.14648438 8.23828125 C0.11127164 5.49168789 0.06202096 2.74609711 0 0 Z " fill="#DEFBFD" transform="translate(202,132)"/>
<path d="M0 0 C3.63 2.31 7.26 4.62 11 7 C10.67257813 7.98097656 10.34515625 8.96195313 10.0078125 9.97265625 C8.80862716 14.16980492 8.77183593 18.10064102 8.875 22.4375 C8.88853516 23.53481445 8.88853516 23.53481445 8.90234375 24.65429688 C8.92563847 26.43634298 8.9614981 28.21821759 9 30 C6 28 6 28 5.3828125 25.75 C4.73457606 18.83547801 5.51156027 13.48119049 8 7 C5.69 6.67 3.38 6.34 1 6 C0.67 4.02 0.34 2.04 0 0 Z " fill="#68C0EB" transform="translate(59,136)"/>
<path d="M0 0 C0.66 0 1.32 0 2 0 C3.078125 1.609375 3.078125 1.609375 4.25 3.75 C8.72268284 11.10075702 15.0375199 12.92283128 23 15 C23 15.66 23 16.32 23 17 C21.02 17 19.04 17 17 17 C17 16.34 17 15.68 17 15 C15.68 15.33 14.36 15.66 13 16 C13 15.34 13 14.68 13 14 C12.278125 13.95875 11.55625 13.9175 10.8125 13.875 C6.76956216 12.61719712 5.56651817 10.32953708 3 7 C2.34 6.67 1.68 6.34 1 6 C0.375 2.9375 0.375 2.9375 0 0 Z " fill="#79CBE5" transform="translate(67,166)"/>
<path d="M0 0 C0.33 0.66 0.66 1.32 1 2 C0.3503125 3.546875 0.3503125 3.546875 -0.3125 5.125 C-1.84574358 8.78587235 -2.2140349 12.13375799 -2.47119141 16.08178711 C-3.11385314 25.14127742 -3.11385314 25.14127742 -6.01953125 27.95703125 C-9.84301413 29.70508562 -11.95056053 30.34981316 -16 29 C-15.505 27.515 -15.505 27.515 -15 26 C-11.7 25.67 -8.4 25.34 -5 25 C-5.02320312 23.75863281 -5.04640625 22.51726562 -5.0703125 21.23828125 C-5.08907731 19.5963602 -5.10727675 17.95443262 -5.125 16.3125 C-5.14175781 15.49587891 -5.15851563 14.67925781 -5.17578125 13.83789062 C-5.21095618 9.49378721 -5.23401838 5.86884641 -3 2 C-2.01 1.34 -1.02 0.68 0 0 Z " fill="#F1DA23" transform="translate(92,106)"/>
<path d="M0 0 C0.33 0 0.66 0 1 0 C0.13802739 8.18873978 -0.53974795 14.29094005 -7 20 C-8.175625 21.2375 -8.175625 21.2375 -9.375 22.5 C-12.40102164 25.38192537 -15.55678573 27.63700982 -19 30 C-17.67521751 26.95429909 -16.39495729 25.29621797 -13.75 23.3125 C-6.27510887 17.09637432 -2.88968465 9.09400757 0 0 Z " fill="#DDFCFD" transform="translate(238,204)"/>
<path d="M0 0 C0.66 0.66 1.32 1.32 2 2 C1.4375 4.375 1.4375 4.375 0 7 C-3.4375 8.125 -3.4375 8.125 -7 9 C-8.64594139 10.39588754 -8.64594139 10.39588754 -10 12 C-12.95361812 13.96907875 -15.49850918 15.35157577 -19 16 C-19 15.34 -19 14.68 -19 14 C-18.34 14 -17.68 14 -17 14 C-16.67 13.01 -16.34 12.02 -16 11 C-10.79409472 6.44483288 -6.86816851 5.17131486 0 5 C0 3.35 0 1.7 0 0 Z " fill="#FDF9C5" transform="translate(89,128)"/>
<path d="M0 0 C0.66 0 1.32 0 2 0 C2.25072886 5.51603499 2.25072886 5.51603499 0.9921875 7.9453125 C-0.13119437 10.27168599 -0.15075237 11.57163171 0 14.125 C0.13706929 19.27366509 -0.83207016 24.00501434 -2 29 C-2.33 29 -2.66 29 -3 29 C-3.32476018 18.84823738 -3.16801648 9.78690805 0 0 Z " fill="#368DE1" transform="translate(20,50)"/>
<path d="M0 0 C0.66 0 1.32 0 2 0 C2 0.66 2 1.32 2 2 C2.66 2 3.32 2 4 2 C7 7.75 7 7.75 7 10 C7.99 10 8.98 10 10 10 C10 11.65 10 13.3 10 15 C9.01 15 8.02 15 7 15 C6.67386719 14.40832031 6.34773437 13.81664063 6.01171875 13.20703125 C3.7386325 9.09670124 1.45504201 5.00559486 -1 1 C-0.67 0.67 -0.34 0.34 0 0 Z " fill="#4F9FE0" transform="translate(162,96)"/>
<path d="M0 0 C0.66 0 1.32 0 2 0 C1.49396008 2.16874252 1.00016187 3.99967627 0 6 C1.32 6 2.64 6 4 6 C4 6.66 4 7.32 4 8 C1.69 8.66 -0.62 9.32 -3 10 C-3 11.32 -3 12.64 -3 14 C-3.66 14 -4.32 14 -5 14 C-5.33 15.65 -5.66 17.3 -6 19 C-7.31397382 16.01369585 -6.95588661 14.87926862 -5.8125 11.75 C-5.22344659 10.49280732 -4.61789763 9.24326983 -4 8 C-3.6390625 7.26394531 -3.278125 6.52789062 -2.90625 5.76953125 C-1.95006088 3.84007821 -0.9764701 1.91926882 0 0 Z " fill="#D9C83F" transform="translate(56,80)"/>
<path d="M0 0 C0.66 0.66 1.32 1.32 2 2 C2.680625 2.144375 3.36125 2.28875 4.0625 2.4375 C4.701875 2.623125 5.34125 2.80875 6 3 C6.33 3.99 6.66 4.98 7 6 C6.40832031 5.79503906 5.81664063 5.59007813 5.20703125 5.37890625 C4.41683594 5.10949219 3.62664062 4.84007813 2.8125 4.5625 C2.03519531 4.29566406 1.25789063 4.02882813 0.45703125 3.75390625 C-4.44808027 2.24884023 -9.19766837 1.77211515 -14.3125 1.4375 C-15.56675781 1.35371094 -16.82101563 1.26992187 -18.11328125 1.18359375 C-19.54220703 1.09271484 -19.54220703 1.09271484 -21 1 C-21 0.67 -21 0.34 -21 0 C-13.81417041 -0.79031967 -7.14554356 -1.26775773 0 0 Z " fill="#6091A2" transform="translate(105,64)"/>
<path d="M0 0 C0 0.99 0 1.98 0 3 C-1.32 3 -2.64 3 -4 3 C-4.99 3.33 -5.98 3.66 -7 4 C-7.33 6.31 -7.66 8.62 -8 11 C-9.32 10.67 -10.64 10.34 -12 10 C-11.58534283 5.16233301 -9.5801385 3.14353624 -6 0 C-3.50907189 -1.24546405 -2.58919267 -0.7767578 0 0 Z " fill="#237EE9" transform="translate(40,29)"/>
<path d="M0 0 C6.58892781 2.9113867 10.78641495 7.2258279 15 13 C15 13.66 15 14.32 15 15 C13.68 14.67 12.36 14.34 11 14 C11 13.01 11 12.02 11 11 C10.195625 10.773125 9.39125 10.54625 8.5625 10.3125 C7.2940625 9.6628125 7.2940625 9.6628125 6 9 C5.1875 6.375 5.1875 6.375 5 4 C3.35 3.67 1.7 3.34 0 3 C0 2.01 0 1.02 0 0 Z " fill="#C9BD52" transform="translate(111,70)"/>
<path d="M0 0 C7.80801031 0.2518713 12.59128959 2.62495135 19 7 C18.01 7.495 18.01 7.495 17 8 C15 7 13 6 11 5 C7.7633037 4.29241674 7.7633037 4.29241674 5 4 C5 3.34 5 2.68 5 2 C4.01 2.33 3.02 2.66 2 3 C2 2.34 2 1.68 2 1 C1.34 0.67 0.68 0.34 0 0 Z " fill="#D3F3FD" transform="translate(174,112)"/>
<path d="M0 0 C0.77472656 0.00451172 1.54945312 0.00902344 2.34765625 0.01367188 C4.23180524 0.02530242 6.11591365 0.04323094 8 0.0625 C8 0.3925 8 0.7225 8 1.0625 C7.26136719 1.11148438 6.52273437 1.16046875 5.76171875 1.2109375 C-0.4867425 1.67143401 -6.50030406 2.42714939 -12.625 3.7578125 C-15.07791099 4.07249516 -16.66932137 3.8286027 -19 3.0625 C-14.65121092 -1.28628908 -5.87840826 -0.06622124 0 0 Z " fill="#418BCB" transform="translate(88,62.9375)"/>
<path d="M0 0 C0 0.66 0 1.32 0 2 C-0.99 2 -1.98 2 -3 2 C-3.06058594 2.60328125 -3.12117188 3.2065625 -3.18359375 3.828125 C-4.35593625 6.94689261 -6.08715349 7.39414589 -9.0625 8.75 C-10.44115234 9.39195313 -10.44115234 9.39195313 -11.84765625 10.046875 C-12.55792969 10.36140625 -13.26820312 10.6759375 -14 11 C-12.50610707 7.16341134 -10.36376981 5.53814574 -7 3.25 C-6.113125 2.63640625 -5.22625 2.0228125 -4.3125 1.390625 C-2 0 -2 0 0 0 Z " fill="#CAC443" transform="translate(72,69)"/>
<path d="M0 0 C-0.33 0.99 -0.66 1.98 -1 3 C-1.7425 3.28875 -2.485 3.5775 -3.25 3.875 C-6.65938917 5.26975012 -8.52693 7.31495257 -11 10 C-11 5.92453987 -9.44695552 4.19463638 -7 1 C-4.00659831 -1.08631027 -3.56491056 -1.18830352 0 0 Z " fill="#FAC503" transform="translate(67,77)"/>
<path d="M0 0 C5.97271152 1.00872461 9.99604414 2.44163139 15 6 C18.2249208 7.24324147 18.2249208 7.24324147 21 8 C18.23547417 9.08724757 17.04676607 9.01466666 14.16015625 8.109375 C13.13792969 7.66078125 12.11570312 7.2121875 11.0625 6.75 C10.04285156 6.31171875 9.02320313 5.8734375 7.97265625 5.421875 C5.19140903 4.09155439 2.57800094 2.6901811 0 1 C0 0.67 0 0.34 0 0 Z " fill="#98E5F4" transform="translate(35,230)"/>
<path d="M0 0 C4.14325595 4.89657521 5.30217221 9.65438369 5 16 C4.34 16.33 3.68 16.66 3 17 C2.87625 15.96875 2.7525 14.9375 2.625 13.875 C2.11770182 10.06776771 2.11770182 10.06776771 0.9375 6.8125 C0 4 0 4 0 0 Z " fill="#3788D5" transform="translate(234,42)"/>
<path d="M0 0 C2.0625 0.4375 2.0625 0.4375 4 1 C4 1.99 4 2.98 4 4 C5.32 4 6.64 4 8 4 C8 4.66 8 5.32 8 6 C5.69 6 3.38 6 1 6 C0.67 5.01 0.34 4.02 0 3 C-1.65 2.67 -3.3 2.34 -5 2 C-4.360625 1.855625 -3.72125 1.71125 -3.0625 1.5625 C-1.02454854 1.18992819 -1.02454854 1.18992819 0 0 Z " fill="#338EEA" transform="translate(111,64)"/>
<path d="M0 0 C1.32 0.33 2.64 0.66 4 1 C2.8553125 1.6496875 2.8553125 1.6496875 1.6875 2.3125 C-0.58093768 3.73686785 -2.2199723 5.03260097 -4 7 C-6.475 6.01 -6.475 6.01 -9 5 C-7.875 3.5 -7.875 3.5 -6 2 C-2.8125 1.8125 -2.8125 1.8125 0 2 C0 1.34 0 0.68 0 0 Z " fill="#ECE332" transform="translate(74,136)"/>
<path d="M0 0 C3.63 0 7.26 0 11 0 C11 0.99 11 1.98 11 3 C7.04 3 3.08 3 -1 3 C-0.67 2.01 -0.34 1.02 0 0 Z " fill="#267ADB" transform="translate(189,17)"/>
<path d="M0 0 C3.63 0 7.26 0 11 0 C11.33 0.99 11.66 1.98 12 3 C9.03 2.505 9.03 2.505 6 2 C5.67 2.99 5.34 3.98 5 5 C3.35 3.35 1.7 1.7 0 0 Z " fill="#E3F3FB" transform="translate(126,85)"/>
<path d="M0 0 C2.64 0 5.28 0 8 0 C8 0.66 8 1.32 8 2 C10.97 2.99 13.94 3.98 17 5 C16.67 5.99 16.34 6.98 16 8 C10.66666667 5.33333333 5.33333333 2.66666667 0 0 Z " fill="#5CA5DE" transform="translate(176,111)"/>
<path d="M0 0 C0.33 0.66 0.66 1.32 1 2 C0 4 0 4 -2.3125 4.8125 C-5.59488307 6.26285531 -6.94676576 8.11026292 -9 11 C-9.99 10.67 -10.98 10.34 -12 10 C-7.81538462 4.21538462 -7.81538462 4.21538462 -3.6875 3.125 C-2.3571875 3.063125 -2.3571875 3.063125 -1 3 C-0.67 2.01 -0.34 1.02 0 0 Z " fill="#FEF7CD" transform="translate(109,92)"/>
<path d="M0 0 C3.63 2.31 7.26 4.62 11 7 C10.67 7.99 10.34 8.98 10 10 C9.34 9.67 8.68 9.34 8 9 C8 8.34 8 7.68 8 7 C5.69 6.67 3.38 6.34 1 6 C0.67 4.02 0.34 2.04 0 0 Z " fill="#6CB9C1" transform="translate(59,136)"/>
<path d="M0 0 C1.45945288 0.08708669 2.91765868 0.19526907 4.375 0.3125 C5.59316406 0.39951172 5.59316406 0.39951172 6.8359375 0.48828125 C9 1 9 1 11 4 C7.37 3.67 3.74 3.34 0 3 C0 2.01 0 1.02 0 0 Z " fill="#E6C131" transform="translate(100,67)"/>
<path d="M0 0 C-1.79143207 0.9795958 -3.58315304 1.9586633 -5.375 2.9375 C-6.37273437 3.48277344 -7.37046875 4.02804688 -8.3984375 4.58984375 C-9.92070346 5.4149759 -11.45128783 6.22564391 -13 7 C-13 6.01 -13 5.02 -13 4 C-12.360625 3.71125 -11.72125 3.4225 -11.0625 3.125 C-8.84793921 2.17176549 -8.84793921 2.17176549 -8 0 C-4.71585695 -0.95067299 -3.30306592 -1.10102197 0 0 Z " fill="#508BAA" transform="translate(76,67)"/>
<path d="M0 0 C0.66 0.66 1.32 1.32 2 2 C1.67 2.99 1.34 3.98 1 5 C0.77674186 7.05893621 0.59294241 9.12233653 0.4375 11.1875 C0.35371094 12.27417969 0.26992187 13.36085937 0.18359375 14.48046875 C0.12300781 15.31191406 0.06242187 16.14335937 0 17 C-0.33 17 -0.66 17 -1 17 C-1.22185844 14.73044814 -1.42705515 12.45926245 -1.625 10.1875 C-1.74101563 8.92292969 -1.85703125 7.65835938 -1.9765625 6.35546875 C-2 3 -2 3 0 0 Z " fill="#6FBFDE" transform="translate(67,145)"/>
<path d="M0 0 C4.39291786 3.31909349 6.8227865 5.79887886 9 11 C8.01 11.495 8.01 11.495 7 12 C4 7.25 4 7.25 4 5 C2.68 4.34 1.36 3.68 0 3 C0 2.01 0 1.02 0 0 Z " fill="#D1F6FE" transform="translate(193,120)"/>
<path d="M0 0 C0.33 0.66 0.66 1.32 1 2 C-1.34375 8.5625 -1.34375 8.5625 -5 11 C-4.54663921 6.12637153 -3.2910841 3.60957611 0 0 Z " fill="#387BD1" transform="translate(29,32)"/>
<path d="M0 0 C-2 2 -2 2 -5.0390625 2.1953125 C-6.22242187 2.17210937 -7.40578125 2.14890625 -8.625 2.125 C-9.81351562 2.10695313 -11.00203125 2.08890625 -12.2265625 2.0703125 C-13.14179687 2.04710937 -14.05703125 2.02390625 -15 2 C-15.33 1.34 -15.66 0.68 -16 0 C-13.89651926 -0.19504458 -11.79217415 -0.38078496 -9.6875 -0.5625 C-8.51574219 -0.66691406 -7.34398438 -0.77132813 -6.13671875 -0.87890625 C-3 -1 -3 -1 0 0 Z " fill="#2478E6" transform="translate(74,18)"/>
<path d="M0 0 C0.33 0.66 0.66 1.32 1 2 C0.34 2 -0.32 2 -1 2 C-1.33 2.99 -1.66 3.98 -2 5 C-5.3 5.33 -8.6 5.66 -12 6 C-9.4347341 4.28982274 -7.12039035 3.09582189 -4.3125 1.875 C-3.50425781 1.52179688 -2.69601563 1.16859375 -1.86328125 0.8046875 C-1.24839844 0.53914062 -0.63351563 0.27359375 0 0 Z " fill="#DAFCFD" transform="translate(217,233)"/>
<path d="M0 0 C1.08667969 0.29197266 1.08667969 0.29197266 2.1953125 0.58984375 C2.74960938 0.74582031 3.30390625 0.90179688 3.875 1.0625 C3.875 1.7225 3.875 2.3825 3.875 3.0625 C1.895 3.0625 -0.085 3.0625 -2.125 3.0625 C-2.125 2.4025 -2.125 1.7425 -2.125 1.0625 C-3.445 1.3925 -4.765 1.7225 -6.125 2.0625 C-6.125 1.4025 -6.125 0.7425 -6.125 0.0625 C-3.57797384 -1.21101308 -2.6967055 -0.73941925 0 0 Z " fill="#77D0F0" transform="translate(86.125,179.9375)"/>
<path d="M0 0 C0.66 0 1.32 0 2 0 C1.690625 0.598125 1.38125 1.19625 1.0625 1.8125 C-0.10209704 4.08956772 -0.10209704 4.08956772 -1 7 C-1.66 7 -2.32 7 -3 7 C-3.33 7.66 -3.66 8.32 -4 9 C-4 7.02 -4 5.04 -4 3 C-3.01 2.67 -2.02 2.34 -1 2 C-0.67 1.34 -0.34 0.68 0 0 Z " fill="#F7D427" transform="translate(97,97)"/>
<path d="M0 0 C1.953125 0.6484375 1.953125 0.6484375 4 2 C4.609375 4.6015625 4.609375 4.6015625 4.75 7.625 C4.80671875 8.62789062 4.8634375 9.63078125 4.921875 10.6640625 C4.94765625 11.43492188 4.9734375 12.20578125 5 13 C3.49439503 10.14589666 2.36783204 7.31875358 1.375 4.25 C0.98441406 3.05117188 0.98441406 3.05117188 0.5859375 1.828125 C0.39257812 1.22484375 0.19921875 0.6215625 0 0 Z " fill="#D3F4FF" transform="translate(235,43)"/>
<path d="M0 0 C4.7517398 0.43197635 6.92000054 1.32769295 10 5 C8.35 5 6.7 5 5 5 C4.731875 4.360625 4.46375 3.72125 4.1875 3.0625 C3.11332248 0.66868314 3.11332248 0.66868314 0 0 Z " fill="#3A78D4" transform="translate(214,24)"/>
<path d="M0 0 C-0.99 0 -1.98 0 -3 0 C-3.33 0.99 -3.66 1.98 -4 3 C-6.31 3 -8.62 3 -11 3 C-7.18178484 -0.02823961 -4.81391924 -1.49397494 0 0 Z " fill="#2E77CD" transform="translate(53,20)"/>
<path d="M0 0 C2.5 2.3125 2.5 2.3125 5 5 C5 5.99 5 6.98 5 8 C2.525 7.01 2.525 7.01 0 6 C0 4.02 0 2.04 0 0 Z " fill="#74B1BD" transform="translate(53,128)"/>
<path d="M0 0 C0.66 0 1.32 0 2 0 C2 1.32 2 2.64 2 4 C2.66 4 3.32 4 4 4 C4.33 6.31 4.66 8.62 5 11 C1.7089159 7.39042389 0.45336079 4.87362847 0 0 Z " fill="#DEDC3F" transform="translate(51,120)"/>
<path d="M0 0 C0.66 0 1.32 0 2 0 C2.3367697 4.93928888 2.16130459 5.78492722 -1 10 C-0.67 6.7 -0.34 3.4 0 0 Z " fill="#2F84EE" transform="translate(20,50)"/>
<path d="M0 0 C0.33 0.66 0.66 1.32 1 2 C1.66 2 2.32 2 3 2 C2.40138258 4.35171131 1.73075648 6.6859378 1 9 C0.01 9.495 0.01 9.495 -1 10 C-1.125 3.375 -1.125 3.375 0 0 Z " fill="#539DC8" transform="translate(49,86)"/>
<path d="M0 0 C1 2 1 2 0.3125 4.5 C-1.15567038 7.29651501 -2.09303901 7.93411431 -5 9 C-3.50163895 5.88801935 -1.80066242 2.9465385 0 0 Z " fill="#E9CA13" transform="translate(60,78)"/>
<path d="M0 0 C-0.66 0 -1.32 0 -2 0 C-2 0.66 -2 1.32 -2 2 C-4.64 2.33 -7.28 2.66 -10 3 C-8 0 -8 0 -6.125 -0.75 C-3.80466218 -1.02298092 -2.21024918 -0.71043724 0 0 Z " fill="#3A7DDB" transform="translate(60,18)"/>
<path d="M0 0 C2.97 0 5.94 0 9 0 C7.515 1.485 7.515 1.485 6 3 C4.02 2.34 2.04 1.68 0 1 C0 0.67 0 0.34 0 0 Z " fill="#468FCF" transform="translate(112,70)"/>
<path d="M0 0 C2.9375 0.375 2.9375 0.375 6 1 C6.33 1.66 6.66 2.32 7 3 C5.35 3.33 3.7 3.66 2 4 C1.34 2.68 0.68 1.36 0 0 Z " fill="#2178EA" transform="translate(203,20)"/>
<path d="M0 0 C0.33 0.66 0.66 1.32 1 2 C0.01 3.485 0.01 3.485 -1 5 C-2.32 5 -3.64 5 -5 5 C-4 2 -4 2 -1.9375 0.8125 C-1.298125 0.544375 -0.65875 0.27625 0 0 Z " fill="#7EC9ED" transform="translate(189,175)"/>
<path d="M0 0 C1.32 0 2.64 0 4 0 C4.33 1.98 4.66 3.96 5 6 C3.2925002 4.71937515 1.62626404 3.38232443 0 2 C0 1.34 0 0.68 0 0 Z " fill="#F5FEF2" transform="translate(225,26)"/>
</svg>
